<?xml version="1.0" encoding="UTF-8"?><svg id="Layer_1" xmlns="http://www.w3.org/2000/svg" viewBox="0 0 30.55 30.31"><defs><style>.cls-1{fill:#060d1a;}.cls-2{fill:#07e5a0;}</style></defs><rect class="cls-1" width="30.55" height="30.31"/><path class="cls-2" d="M7.34,17.67l.07,1.32c.08,1.59-.66,2.54-2.2,2.62-1.53.08-2.38-.79-2.46-2.38l-.26-4.95c-.08-1.59.66-2.54,2.2-2.62s2.38.79,2.46,2.38l.05.97-1.48.08-.06-1.07c-.04-.71-.36-.96-.86-.94-.5.03-.8.31-.76,1.02l.27,5.15c.04.71.36.95.86.92.5-.03.8-.3.76-1.01l-.08-1.42,1.48-.08Z"/><path class="cls-2" d="M15.25,11.11l.4,7.55c.04.71.36.95.86.92.5-.03.8-.3.76-1.01l-.4-7.55,1.48-.08.39,7.45c.08,1.59-.66,2.54-2.2,2.62-1.53.08-2.38-.79-2.46-2.38l-.39-7.45,1.56-.08Z"/><path class="cls-2" d="M21.52,10.78c1.52-.08,2.35.77,2.43,2.32l.02.31-1.48.08-.02-.4c-.04-.69-.34-.94-.83-.92-.5.03-.77.31-.73,1,.11,2,3.18,2.21,3.33,4.99.08,1.56-.67,2.49-2.2,2.57-1.54.08-2.38-.77-2.46-2.32l-.03-.6,1.48-.08.04.69c.04.69.36.93.86.9.5-.03.8-.29.76-.99-.11-2-3.18-2.21-3.33-4.99-.08-1.56.65-2.49,2.17-2.57"/><polygon class="cls-2" points="26.51 14.72 28.66 14.6 28.73 16.02 26.59 16.14 26.74 19.05 29.44 18.91 29.52 20.33 25.25 20.55 24.73 10.61 28.99 10.38 29.07 11.8 26.37 11.94 26.51 14.72"/><polygon class="cls-2" points="11.44 11.31 9.15 11.43 8.08 21.46 9.52 21.39 9.62 20.34 9.62 20.34 10.03 16.06 10.31 13.14 11.33 18.13 11.61 19.47 11.98 21.26 13.56 21.17 11.44 11.31"/></svg>